<svg xmlns="http://www.w3.org/2000/svg" viewBox="0 0 520.84111 453.34636"><g id="aadd5234-a337-4d03-a5d1-66fe14fdfafd" data-name="Layer 2"><g id="fcce360d-8bd1-4d98-8802-f011c521e62d" data-name="Layer 2"><path d="M6.19137,221.44526C22.79178,130.53827,142.25809,90.481,183.07811,81.97687c38.29691-7.97853,72.62316,25.11374,80.78962,31.46543,7.65375,5.95292,11.05542,5.95292,19.55959-.85042S327.649,81.97687,361.66568,90.481c31.52419,7.881,139.46839,39.11918,153.92548,128.413C535.31548,340.72067,394.832,397.48158,206.03937,407.68658,56.366,429.79743-11.66739,319.24321,6.19137,221.44526Z" style="fill:#ff7dbb;stroke:#fff;stroke-miterlimit:10;stroke-width:6.80333614349365px;opacity:0.33"/><path d="M142.25809,449.357c35.71752-5.1025,331.46308-85.78482,285.74012-275.53512C393.98153,32.65268,197.5352-48.13694,134.60434,40.30643,91.79827,100.46631,47.308,266.53325,55.51556,371.11865,59.37427,420.28832,103.2625,454.92782,142.25809,449.357Z" style="fill:#ff8f8f;stroke:#fff;stroke-miterlimit:10;stroke-width:6.80333614349365px;opacity:0.33"/><path d="M400.78487,434.04951c-69.19849-2.80929-354.57455-86.05868-300.19721-269.58219,40.82-137.76756,279.7872-109.7038,315.50471-24.6621,20.61263,49.0777,75.45047,87.29422,90.45047,149.29422C516.67915,330.99619,500.54284,438.09944,400.78487,434.04951Z" style="fill:#ffc37b;stroke:#fff;stroke-miterlimit:10;stroke-width:6.80333614349365px;opacity:0.33"/><path d="M273.73254,401.71664a.50741.50741,0,0,1-.13609.068.24086.24086,0,0,0-.10205-.034c-96.046-36.65306-210.053-111.89794-172.90674-237.28337,12.02491-40.565,41.21117-66.75774,77.33687-81.3339,1.83693-.44223,3.55479-.81637,5.15358-1.15655C221.38092,74,255.70374,107.09811,263.86773,113.4423c7.65375,5.95292,11.05542,5.95292,19.55959-.85042S327.649,81.97687,361.66568,90.481c.22112.051.45926.11907.6973.18706,25.66563,12.28,45.32727,29.1353,53.72939,49.13712A272.74459,272.74459,0,0,1,429.529,180.84636C448.52729,279.40961,362.82224,354.58649,273.73254,401.71664Z" style="fill:#ffa397;stroke:#fff;stroke-miterlimit:10;stroke-width:3.40166807174683px"/></g></g></svg>